<svg height="585pt" preserveAspectRatio="xMidYMid meet" viewBox="0 0 585 585" width="585pt" xmlns="http://www.w3.org/2000/svg"><g transform="matrix(.1 0 0 -.1 0 585)"><path d="m2689 5656c-2-3-42-7-89-11-47-3-92-8-100-10-8-3-35-7-60-10-77-9-240-46-360-80-780-227-1486-875-1829-1678-67-159-148-414-177-562-4-22-8-42-9-45 0-3-4-27-9-53-4-27-9-56-10-65-8-43-25-176-31-247-6-61-7-322-1-350 2-11 7-56 12-100 4-44 8-82 9-85s5-25 9-50c75-453 294-987 587-1431 89-134 137-195 226-284 205-206 457-358 632-381 25-3 48-6 51-7 25-5 127 20 179 44 238 110 493 418 508 613 7 82-9 149-63 264-51 109-123 215-231 336-355 403-389 460-516 882-58 190-78 299-80 432-1 101 9 267 17 281 2 3 7 27 10 52 27 205 153 531 281 730 43 67 255 287 375 391 287 247 578 411 855 481 56 15 80 19 180 32 52 7 230 8 275 1 19-2 58-8 85-12 28-4 53-8 58-8 17-2 3-24-50-78-30-32-52-58-48-58s56 25 117 56l110 57 136-46c172-57 281-105 263-116-14-9 16-21 53-21 11 0 63-25 116-56l97-56-11-39c-7-29-16-39-31-40-11 0-29-2-40-4s-33-6-50-9c-16-3-49-9-72-12-41-6-42-5-34 22 8 31-10 51-152 162-78 62-100 73-92 50 39-126 53-164 82-225 40-81 66-110 105-115 15-2 35-11 45-20 34-31 73-27 181 19l103 43 59-20c68-23 94-22 114 5 13 18 19 15 95-60 92-89 142-150 198-245 121-201 233-576 268-901 4-30 8-60 11-67 7-23 17-332 10-332-4 0-23 7-43 15s-38 14-39 12c-2-2 10-30 26-62 35-69 29-85-35-85-84 0-256 96-292 163-26 48-22 146 10 236 14 41 30 78 36 84 5 5 30 9 55 9l46-1v37c-1 76-70 176-151 216-28 14-37 13-177-34-81-27-158-51-172-54s-36-7-50-10-36-8-50-11c-34-7-58-11-105-19-130-20-174-24-335-32-69-3-128-8-131-12-4-4 0-29 9-55 18-57 99-136 184-181l56-29 93 62c114 77 200 120 304 154 83 27 213 49 220 37 3-4-5-27-17-51-18-35-22-62-23-134 0-82 3-96 32-155 42-84 125-185 210-253 79-62 137-96 248-142 89-37 83-27 71-142-20-198-92-496-140-583l-14-24-15 35c-8 19-36 58-63 88l-49 53-65-20c-61-19-181-45-260-56-58-9-246-17-230-10 37 16 48 35 43 72-9 66-3 146 15 177 3 6-8-2-24-17-31-28-82-46-126-43-16 1-28-2-28-7 0-15 81-172 92-179 18-12-27-15-150-13l-122 3 21-42c25-50 111-135 145-143 14-4 30-2 37 4 17 13 129 54 134 48 2-2-16-35-40-72-64-101-71-115-52-108 18 7 19-9 5-76-12-56-24-189-24-255 1-78 12-107 59-150l43-41-97-72c-103-78-114-81-190-50l-34 13 57 38c31 21 60 45 63 53 10 27-18 97-54 133-20 20-32 41-29 50 2 9 16 50 31 91 33 92 40 163 20 183-27 28-197-4-237-44-35-35-30-51 34-109l50-45-26-50c-39-78-38-130 4-178 16-19 26-38 21-43-4-5-20-39-35-75-26-62-30-67-77-83-28-10-73-23-100-30l-51-11 39-41c21-22 53-49 70-59l32-19-102-59c-56-33-167-93-247-134-80-42-134-73-120-69s54 13 90 22c256 60 530 151 834 278 41 17 65 22 77 16 35-19 258-92 354-116 60-15 142-27 203-29 171-8 281 25 381 115l44 40-44 1c-24 0-66 2-94 4-140 8-284 17-315 20-19 2-72 7-118 10-46 4-91 8-100 9-31 6-167 20-174 18-5-1-8 2-8 6s21 18 48 31c112 54 415 254 472 311 3 3 39 34 80 70 324 282 561 640 698 1055 38 115 70 229 78 280 3 22 8 43 10 46s6 21 9 40 10 57 15 84c11 61 17 102 25 180 3 33 8 69 10 80 25 124 26 532 2 675-73 425-268 841-566 1208-90 111-136 156-315 302-162 133-347 257-508 340-98 50-130 72-143 96-9 17-38 53-64 78l-48 47-27-41c-15-23-33-40-39-37-113 43-423 128-522 142-22 4-47 8-55 10-18 5-138 23-211 30-30 4-67 8-84 11-38 7-550 16-556 10zm1971-4100c105-11 190-29 190-40 0-14-70-125-118-188l-35-47-22 48c-17 35-36 56-74 80-47 30-57 33-104 28-53-5-151-45-196-79-24-18-23-18 72-16 53 1 101-2 106-7 27-30 42-165 26-245-5-30-129-149-162-155-13-3-34-7-47-10-26-5-27-4-40 58-6 26-5 27 13 17 11-5 23-15 26-20 17-27 126 16 120 47-2 10-4 23-4 29-1 6-12 23-26 37-28 27-65 28-116 1-26-13-27-12-33 17-8 42-2 48 47 47 109-1 177 3 177 10 0 21-74 93-103 100-28 8-37 4-78-30-25-21-48-38-51-38s-9 23-12 52c-4 28-13 66-21 84-15 38-17 35 65 82 89 51 84 45 70 86-7 21-10 40-7 43s34 8 69 10c35 3 64 6 65 7 5 4 148-2 203-8z"/><path d="m3978 3913c-24-28-280-415-276-418 2-2 39 5 83 14 44 10 88 17 97 15 9-1 29 9 43 22s31 24 36 24c12 0 101-59 110-73 4-6 33-5 75 3 68 13 185 16 234 5 97-21 95-21 118 33 12 28 22 59 22 69-1 42-68 89-143 99-39 6-114-11-337-76-31-9-28-4 45 63 84 79 84 76 35 133-29 34-110 104-120 104-4 0-14-8-22-17z"/><path d="m4408 3445c-1-1-22-5-45-8-22-4-52-8-65-11-12-3-36-7-53-9-62-9-250-40-253-43-7-5 29-63 72-116 45-55 46-56 83-48 42 9 120 17 268 26 58 3 103 11 107 18 25 37-5 133-51 165-28 19-57 32-63 26z"/><path d="m4230 2935c0-4 20-25 45-47s45-44 45-48c0-5-13-29-29-52-16-24-28-45-26-47 6-6 195 87 195 96 0 14-50 62-80 78-32 17-150 33-150 20z"/><path d="m4121 2809c10-31 21-85 24-120 14-127 18-116-44-133-82-22-151-33-225-35-27-1-28-3-23-36 7-45 40-91 78-111 29-14 32-14 87 19 31 19 76 44 100 56l42 21v-37c2-142 5-169 27-199 12-17 34-39 48-48 25-16 26-16 35 9 14 37 12 96-4 142-8 22-17 61-20 88-4 26-8 52-9 58s18 15 43 22c47 12 144 3 166-16 18-15 34 13 28 51-6 39-43 92-79 116-22 14-28 13-95-22-39-20-74-33-78-29s-8 59-8 123c-2 131-9 144-75 140l-36-2z"/><path d="m4014 2769c-28-31-84-51-127-46-35 5-37 4-25-11 8-10 36-43 63-75 56-67 102-97 117-75 27 39 39 83 33 121-7 38-31 107-39 107-1 0-11-9-22-21z"/><path d="m4379 2323c43-54 85-110 92-125l14-26 42 19c39 18 41 21 34 47-20 70-58 119-97 126-63 12-73 15-112 35-23 12-44 21-46 21-3 0 30-44 73-97z"/><path d="m3963 2329c-53-25-63-34-64-57-3-54 2-86 14-94 21-14 52-9 62 11 6 10 20 37 33 59 22 41 38 112 24 112-4 0-35-14-69-31z"/><path d="m4544 2085c-10-8-14-15-8-15 47-1-8-127-107-247-59-73-60-73-29-68 128 23 280 127 332 229l20 39-23 19c-70 55-146 73-185 43z"/><path d="m3663 1583c18-34 146-200 173-225 14-12 35-16 74-15l55 2-1 40c0 23-14 71-33 110-29 65-34 70-63 69s-162 27-202 42c-17 7-17 5-3-23z"/></g></svg>